<svg width="16" height="16" viewBox="0 0 12 16" fill="none" xmlns="http://www.w3.org/2000/svg">
<rect x="2.78598" y="0.5" width="5.85714" height="9.28571" rx="2.92857" stroke="#707070"/>
<path fill-rule="evenodd" clip-rule="evenodd" d="M0.370941 8.60783C0.666439 8.49702 0.995817 8.64673 1.10663 8.94223C2.70324 13.1999 8.72564 13.1999 10.3223 8.94223C10.4331 8.64673 10.7624 8.49702 11.0579 8.60783C11.3534 8.71864 11.5032 9.04802 11.3923 9.34351C9.42495 14.5899 2.00393 14.5899 0.0365382 9.34351C-0.0742733 9.04802 0.0754441 8.71864 0.370941 8.60783Z" fill="#707070"/>
<rect x="5.14313" y="12.5713" width="1.14286" height="3.42857" rx="0.571429" fill="#707070"/>
<rect x="9" y="15" width="1" height="6.7" rx="0.5" transform="rotate(90 9 15)" fill="#707070"/>
<rect x="2.85742" y="3.42871" width="3.42857" height="1.14286" rx="0.571429" fill="#707070"/>
<rect x="2.85742" y="5.71387" width="3.42857" height="1.14286" rx="0.571429" fill="#707070"/>
</svg>
