<?xml version="1.0" standalone="no"?><!DOCTYPE svg PUBLIC "-//W3C//DTD SVG 1.1//EN" "http://www.w3.org/Graphics/SVG/1.1/DTD/svg11.dtd"><svg t="1666595206114" class="icon" viewBox="0 0 1024 1024" version="1.1" xmlns="http://www.w3.org/2000/svg" p-id="2461" xmlns:xlink="http://www.w3.org/1999/xlink" width="200" height="200"><path d="M512 942C274.9 942 82 749.11 82 512 82 274.9 274.9 82 512 82c237.11 0 430 192.9 430 430 0 237.11-192.89 430-430 430z m0-800c-204.02 0-370 165.98-370 370s165.98 370 370 370 370-165.98 370-370-165.98-370-370-370z" p-id="2462"></path><path d="M512 541.55c-56.46 0-102.4-45.95-102.4-102.41s45.94-102.4 102.4-102.4 102.4 45.94 102.4 102.4c0 16.57-13.44 30-30 30s-30-13.43-30-30c0-23.38-19.02-42.4-42.4-42.4s-42.4 19.02-42.4 42.4 19.02 42.4 42.4 42.4c16.57 0 30 13.43 30 30s-13.43 30.01-30 30.01z" p-id="2463"></path><path d="M509.14 680.63c-54.88 0-99.54-44.67-99.54-99.55 0-16.56 13.43-30 30-30s30 13.44 30 30c0 21.82 17.73 39.55 39.54 39.55s39.54-17.73 39.54-39.55c0-21.8-17.73-39.53-39.54-39.53-16.57 0-30-13.44-30-30.01s13.43-30 30-30c54.89 0 99.54 44.66 99.54 99.54s-44.65 99.55-99.54 99.55zM509.14 396.74c-16.57 0-30-13.43-30-30v-40c0-16.57 13.43-30 30-30s30.01 13.43 30.01 30v40c0 16.57-13.44 30-30.01 30z" p-id="2464"></path><path d="M512 727.27c-16.57 0-30-13.44-30-30v-40c0-16.56 13.43-30 30-30s30 13.44 30 30v40c0 16.57-13.43 30-30 30z" p-id="2465"></path></svg>